<svg width="512" height="512" viewBox="0 0 512 512" fill="none" xmlns="http://www.w3.org/2000/svg">
<symbol id="main" viewBox="0 0 512 512"><title>main</title>
<path  d="M369.491 142.509C352.948 125.966 333.563 113.502 311.875 105.465C307.974 104.021 303.64 106.01 302.195 109.91C300.75 113.811 302.739 118.145 306.64 119.591C326.278 126.869 343.841 138.163 358.839 153.161C373.837 168.159 385.131 185.721 392.409 205.36C393.535 208.398 396.413 210.277 399.474 210.277C400.342 210.277 401.227 210.125 402.09 209.806C405.991 208.361 407.981 204.026 406.535 200.126C398.498 178.437 386.034 159.052 369.491 142.509V142.509Z" fill="black"/>
<path  d="M112.526 210.277C115.586 210.277 118.465 208.398 119.591 205.36C126.869 185.722 138.163 168.159 153.161 153.161C168.159 138.163 185.721 126.869 205.36 119.591C209.261 118.145 211.251 113.811 209.805 109.91C208.359 106.009 204.026 104.019 200.124 105.465C178.437 113.502 159.052 125.966 142.509 142.509C125.966 159.052 113.502 178.437 105.465 200.125C104.02 204.025 106.009 208.36 109.91 209.805C110.773 210.125 111.658 210.277 112.526 210.277V210.277Z" fill="black"/>
<path  d="M309.258 407.006C310.127 407.006 311.012 406.854 311.874 406.535C333.562 398.498 352.947 386.034 369.49 369.491C386.033 352.948 398.497 333.563 406.534 311.875C407.979 307.975 405.99 303.64 402.089 302.195C398.189 300.75 393.854 302.74 392.408 306.64C385.13 326.278 373.836 343.841 358.838 358.839C343.84 373.837 326.278 385.131 306.639 392.409C302.738 393.855 300.748 398.189 302.194 402.09C303.321 405.128 306.198 407.006 309.258 407.006Z" fill="black"/>
<path d="M142.509 369.491C159.052 386.034 178.437 398.498 200.125 406.535C200.987 406.854 201.872 407.006 202.741 407.006C205.801 407.006 208.679 405.127 209.805 402.089C211.25 398.188 209.261 393.854 205.36 392.408C185.722 385.13 168.159 373.836 153.161 358.838C138.163 343.84 126.869 326.278 119.591 306.639C118.144 302.738 113.812 300.747 109.91 302.194C106.009 303.639 104.019 307.974 105.465 311.874C113.502 333.563 125.966 352.948 142.509 369.491Z" fill="black"/>
<path  d="M245.779 131.484V107.423L268.25 134.934C270.265 137.401 273.614 138.333 276.613 137.264C279.613 136.194 281.616 133.353 281.616 130.169V86.2966C281.616 82.1368 278.243 78.7643 274.083 78.7643C269.923 78.7643 266.551 82.1368 266.551 86.2966V109.041L244.079 81.5312C242.065 79.0646 238.717 78.1316 235.716 79.2012C232.716 80.2708 230.714 83.112 230.714 86.2956V131.483C230.714 135.643 234.086 139.015 238.246 139.015C242.406 139.015 245.779 135.645 245.779 131.484Z" fill="black"/>
<path  d="M422.36 238.438C426.52 238.438 429.892 235.066 429.892 230.906C429.892 226.746 426.52 223.373 422.36 223.373H396.798C391.099 223.373 386.462 228.01 386.462 233.71V278.291C386.462 283.991 391.099 288.628 396.798 288.628H422.36C426.52 288.628 429.892 285.255 429.892 281.095C429.892 276.935 426.52 273.563 422.36 273.563H401.527V263.532H413.132C417.292 263.532 420.665 260.159 420.665 256C420.665 251.84 417.292 248.467 413.132 248.467H401.527V238.438H422.36Z" fill="black"/>
<path  d="M97.1713 257.215L94.1152 261.202L88.4931 236.761C87.5611 232.706 83.5137 230.176 79.4643 231.109C75.4099 232.042 72.879 236.084 73.812 240.137L83.0196 280.167C83.6734 283.011 85.91 285.22 88.7602 285.84C91.6094 286.46 94.5621 285.377 96.3378 283.062L103.149 274.178L109.959 283.061C111.402 284.944 113.624 286.011 115.937 286.011C116.468 286.011 117.005 285.955 117.537 285.84C120.387 285.22 122.624 283.011 123.277 280.167L132.485 240.137C133.418 236.083 130.887 232.041 126.833 231.109C122.778 230.177 118.736 232.706 117.804 236.761L112.182 261.201L109.127 257.215C107.702 255.355 105.492 254.265 103.149 254.265C100.807 254.265 98.5965 255.356 97.1713 257.215Z" fill="black"/>
<path  d="M251.558 384.227H272.617C276.777 384.227 280.149 380.855 280.149 376.695C280.149 372.535 276.777 369.163 272.617 369.163H251.558C242.216 369.163 234.617 376.762 234.617 386.104V392.871C234.617 402.213 242.216 409.813 251.558 409.813H263.207C264.243 409.813 265.085 410.655 265.085 411.69V420.099C265.085 421.135 264.243 421.976 263.207 421.976H242.149C237.989 421.976 234.617 425.349 234.617 429.509C234.617 433.669 237.989 437.041 242.149 437.041H263.207C272.55 437.041 280.149 429.441 280.149 420.099V411.69C280.149 402.348 272.55 394.748 263.207 394.748H251.558C250.523 394.748 249.681 393.907 249.681 392.871V386.104C249.681 385.069 250.523 384.227 251.558 384.227V384.227Z" fill="black"/>
</symbol>
<symbol id="arrow" viewBox="0 0 512 512"><title>arrow</title><path  d="M323.395 317.833C327.283 313.694 328.279 307.679 325.932 302.508L298.662 242.43C296.941 238.642 292.476 236.967 288.689 238.685C284.902 240.405 283.224 244.87 284.944 248.658L311.101 306.285L261.13 287.263C257.928 286.044 254.401 286.044 251.199 287.263L201.054 306.352L255.564 183.929L271.316 218.635C273.036 222.422 277.5 224.097 281.289 222.38C285.076 220.661 286.754 216.196 285.034 212.407L268.262 175.458C265.967 170.403 261.103 167.269 255.557 167.269C255.538 167.269 255.52 167.269 255.503 167.269C249.935 167.289 245.069 170.462 242.803 175.549L186.207 302.657C183.906 307.825 184.931 313.818 188.819 317.927C191.511 320.773 195.182 322.298 198.942 322.297C200.612 322.297 202.297 321.997 203.923 321.378L256.163 301.492L308.256 321.322C313.565 323.342 319.506 321.972 323.395 317.833V317.833Z" fill="black"/></symbol>
</svg>
